<svg width="392.31874999999997px" height="153.2px" xmlns="http://www.w3.org/2000/svg" viewBox="53.84062500000002 -1.5999999999999943 392.31874999999997 153.2" style="background: rgb(255, 255, 255);" preserveAspectRatio="xMidYMid"><defs><linearGradient id="editing-gradient-gradient" x1="0" x2="1" y1="0.5" y2="0.5" gradientUnits="objectBoundingBox"><stop offset="0" stop-color="#14a651"></stop><stop offset="1" stop-color="#e9eee8"></stop></linearGradient></defs><g><g transform="translate(111.69498538970947, 104.4850025177002)"><path d="M8.15-40.91L8.15-40.91L8.15-40.91Q5.29-43.09 5.29-47.75L5.29-47.75L5.29-47.75Q5.29-52.42 8.36-54.85L8.36-54.85L8.36-54.85Q11.42-57.29 16.72-57.29L16.72-57.29L16.72-57.29Q20.08-57.29 28.06-56.11L28.06-56.11L33.77-55.27L33.77-55.27Q36.62-54.94 39.61-54.94L39.61-54.94L39.61-54.94Q42.59-54.94 44.60-56.20L44.60-56.20L44.60-56.20Q47.63-53.51 47.63-49.64L47.63-49.64L47.63-49.64Q47.63-45.78 44.18-43.01L44.18-43.01L44.18-43.01Q40.66-40.07 36.12-40.07L36.12-40.07L36.12-40.07Q33.94-40.07 30.41-40.66L30.41-40.66L30.41-40.66Q26.29-27.72 26.29-18.73L26.29-18.73L26.29-18.73Q26.29-9.74 30.83-5.04L30.83-5.04L30.83-5.04Q28.73-1.26 25.62 0.21L25.62 0.21L25.62 0.21Q22.51 1.68 17.85 1.68L17.85 1.68L17.85 1.68Q13.19 1.68 10.29-0.88L10.29-0.88L10.29-0.88Q7.39-3.44 7.39-8.74L7.39-8.74L7.39-8.74Q7.39-14.87 10.75-24.95L10.75-24.95L10.75-24.95Q14.11-34.94 19.15-42.59L19.15-42.59L19.15-42.59Q16.72-42.84 14.20-42.84L14.20-42.84L14.20-42.84Q8.99-42.84 8.15-40.91ZM46.20-20.50L46.20-20.50L46.20-20.50Q46.20-36.37 54.43-46.37L54.43-46.37L54.43-46.37Q63.17-57.20 78.37-57.20L78.37-57.20L78.37-57.20Q89.38-57.20 94.92-51.87L94.92-51.87L94.92-51.87Q100.46-46.54 100.46-35.28L100.46-35.28L100.46-35.28Q100.46-18.14 91.73-8.15L91.73-8.15L91.73-8.15Q83.08 1.68 68.54 1.68L68.54 1.68L68.54 1.68Q57.20 1.68 51.70-3.99L51.70-3.99L51.70-3.99Q46.20-9.66 46.20-20.50ZM68.29-37.88L68.29-37.88L68.29-37.88Q64.51-22.76 64.51-10.84L64.51-10.84L64.51-10.84Q64.51-7.98 65.48-6.13L65.48-6.13L65.48-6.13Q66.44-4.28 69.01-4.28L69.01-4.28L69.01-4.28Q71.57-4.28 73.16-5.50L73.16-5.50L73.16-5.50Q74.76-6.72 76.02-9.49L76.02-9.49L76.02-9.49Q78.04-14.03 79.93-23.65L79.93-23.65L79.93-23.65Q81.82-33.26 81.98-37.25L81.98-37.25L81.98-37.25Q82.15-41.24 82.15-44.27L82.15-44.27L82.15-44.27Q82.15-47.29 81.23-49.22L81.23-49.22L81.23-49.22Q80.30-51.16 77.83-51.16L77.83-51.16L77.83-51.16Q75.35-51.16 73.67-49.64L73.67-49.64L73.67-49.64Q70.56-46.79 68.29-37.88ZM106.18-12.43L106.18-12.43L106.18-12.43Q106.18-15.71 107.02-19.91L107.02-19.91L113.82-55.44L132.38-55.44L125.66-19.66L125.66-19.66Q124.91-15.71 124.91-12.81L124.91-12.81L124.91-12.81Q124.91-9.91 126.13-8.40L126.13-8.40L126.13-8.40Q127.34-6.89 129.61-6.89L129.61-6.89L129.61-6.89Q131.88-6.89 133.31-7.48L133.31-7.48L133.31-7.48Q134.74-8.06 135.91-9.49L135.91-9.49L135.91-9.49Q138.18-12.35 139.61-19.66L139.61-19.66L146.41-55.44L159.10-55.44L152.38-19.74L152.38-19.74Q150.02-7.81 143.56-3.02L143.56-3.02L143.56-3.02Q137.26 1.68 124.82 1.68L124.82 1.68L124.82 1.68Q115.50 1.68 110.54-2.35L110.54-2.35L110.54-2.35Q106.18-5.88 106.18-12.43ZM178.00 0L160.02 0L170.27-55.19L170.27-55.19Q178.58-56.11 190.72-56.11L190.72-56.11L190.72-56.11Q202.86-56.11 208.49-52.58L208.49-52.58L208.49-52.58Q214.12-49.06 214.12-41.96L214.12-41.96L214.12-41.96Q214.12-34.86 210.46-30.41L210.46-30.41L210.46-30.41Q206.81-25.96 200.51-24.53L200.51-24.53L200.51-24.53Q201.94-17.56 205.21-11.93L205.21-11.93L205.21-11.93Q208.24-6.64 211.76-4.96L211.76-4.96L211.76-4.96Q210.50-1.43 207.94 0.13L207.94 0.13L207.94 0.13Q205.38 1.68 201.73 1.68L201.73 1.68L201.73 1.68Q198.07 1.68 195.22-0.46L195.22-0.46L195.22-0.46Q192.36-2.60 190.09-6.55L190.09-6.55L190.09-6.55Q185.30-15.12 184.80-28.64L184.80-28.64L185.39-28.64L185.39-28.64Q191.60-28.81 194.71-32.05L194.71-32.05L194.71-32.05Q197.82-35.28 197.82-42.08L197.82-42.08L197.82-42.08Q197.82-50.57 190.68-50.90L190.68-50.90L188.83-50.90L188.83-50.90Q188.08-50.90 187.66-50.82L187.66-50.82L178.00 0ZM235.20 0L217.22 0L227.47-55.19L227.47-55.19Q235.79-56.11 247.93-56.11L247.93-56.11L247.93-56.11Q260.06-56.11 265.69-52.58L265.69-52.58L265.69-52.58Q271.32-49.06 271.32-41.96L271.32-41.96L271.32-41.96Q271.32-34.86 267.67-30.41L267.67-30.41L267.67-30.41Q264.01-25.96 257.71-24.53L257.71-24.53L257.71-24.53Q259.14-17.56 262.42-11.93L262.42-11.93L262.42-11.93Q265.44-6.64 268.97-4.96L268.97-4.96L268.97-4.96Q267.71-1.43 265.15 0.13L265.15 0.13L265.15 0.13Q262.58 1.68 258.93 1.68L258.93 1.68L258.93 1.68Q255.28 1.68 252.42-0.46L252.42-0.46L252.42-0.46Q249.56-2.60 247.30-6.55L247.30-6.55L247.30-6.55Q242.51-15.12 242.00-28.64L242.00-28.64L242.59-28.64L242.59-28.64Q248.81-28.81 251.92-32.05L251.92-32.05L251.92-32.05Q255.02-35.28 255.02-42.08L255.02-42.08L255.02-42.08Q255.02-50.57 247.88-50.90L247.88-50.90L246.04-50.90L246.04-50.90Q245.28-50.90 244.86-50.82L244.86-50.82L235.20 0Z" fill="url(#editing-gradient-gradient)"></path></g></g><style>text {
  font-size: 64px;
  font-family: Arial Black;
  dominant-baseline: central;
  text-anchor: middle;
}</style></svg>